<svg xmlns="http://www.w3.org/2000/svg" xmlns:xlink="http://www.w3.org/1999/xlink" width="100%" zoomAndPan="magnify" viewBox="0 0 1440 809.999993" height="100%" preserveAspectRatio="xMidYMid meet" version="1.0"><defs><clipPath id="912a40b25d"><path d="M 566.296875 411 L 636 411 L 636 537.597656 L 566.296875 537.597656 Z M 566.296875 411 " clip-rule="nonzero"/></clipPath><clipPath id="e2e38b81ae"><path d="M 804 411 L 873.796875 411 L 873.796875 537.597656 L 804 537.597656 Z M 804 411 " clip-rule="nonzero"/></clipPath><clipPath id="370be43702"><path d="M 630 214.347656 L 800 214.347656 L 800 384 L 630 384 Z M 630 214.347656 " clip-rule="nonzero"/></clipPath><clipPath id="ca18d6c319"><path d="M 137.613281 405 L 433.769531 405 L 433.769531 526.5 L 137.613281 526.5 Z M 137.613281 405 " clip-rule="nonzero"/></clipPath><clipPath id="c3448361d2"><path d="M 372.867188 405 C 406.417969 405 433.617188 432.199219 433.617188 465.75 C 433.617188 499.300781 406.417969 526.5 372.867188 526.5 L 198.363281 526.5 C 164.8125 526.5 137.613281 499.300781 137.613281 465.75 C 137.613281 432.199219 164.8125 405 198.363281 405 Z M 372.867188 405 " clip-rule="nonzero"/></clipPath><clipPath id="b2c446ea6c"><path d="M 1020.6875 405 L 1316.84375 405 L 1316.84375 526.5 L 1020.6875 526.5 Z M 1020.6875 405 " clip-rule="nonzero"/></clipPath><clipPath id="030cc2c02d"><path d="M 1255.941406 405 C 1289.492188 405 1316.691406 432.199219 1316.691406 465.75 C 1316.691406 499.300781 1289.492188 526.5 1255.941406 526.5 L 1081.4375 526.5 C 1047.886719 526.5 1020.6875 499.300781 1020.6875 465.75 C 1020.6875 432.199219 1047.886719 405 1081.4375 405 Z M 1255.941406 405 " clip-rule="nonzero"/></clipPath></defs><rect x="-144" width="1728" fill="#ffffff" y="-80.999999" height="971.999992" fill-opacity="1"/><rect x="-144" width="1728" fill="#ffffff" y="-80.999999" height="971.999992" fill-opacity="1"/><path fill="#545653" d="M 739.472656 409.105469 L 690.4375 409.105469 C 688.351562 409.105469 686.652344 407.40625 686.652344 405.320312 L 686.652344 376.261719 C 686.652344 375.054688 687.226562 373.921875 688.207031 373.207031 C 689.175781 372.496094 690.433594 372.292969 691.582031 372.660156 C 699.125 375.050781 706.988281 376.269531 714.957031 376.269531 C 722.925781 376.269531 730.785156 375.050781 738.324219 372.660156 C 739.472656 372.292969 740.726562 372.496094 741.707031 373.207031 C 742.679688 373.921875 743.25 375.054688 743.25 376.261719 L 743.25 405.320312 C 743.25 407.40625 741.5625 409.105469 739.472656 409.105469 Z M 739.472656 409.105469 " fill-opacity="1" fill-rule="evenodd"/><path fill="#676b66" d="M 765.894531 438.394531 L 664.011719 438.394531 C 661.921875 438.394531 660.226562 436.699219 660.226562 434.609375 L 660.226562 411.046875 C 660.226562 405.804688 664.496094 401.535156 669.738281 401.535156 L 760.167969 401.535156 C 765.410156 401.535156 769.679688 405.804688 769.679688 411.046875 L 769.679688 434.609375 C 769.679688 436.699219 767.984375 438.394531 765.894531 438.394531 Z M 765.894531 438.394531 " fill-opacity="1" fill-rule="evenodd"/><path fill="#7adaed" d="M 720.046875 536.449219 C 697.714844 536.449219 677.714844 529.105469 669.242188 517.984375 L 631.855469 517.984375 C 629.765625 517.984375 628.070312 516.292969 628.070312 514.199219 L 628.070312 434.609375 C 628.070312 432.523438 629.765625 430.824219 631.855469 430.824219 L 808.242188 430.824219 C 810.328125 430.824219 812.027344 432.523438 812.027344 434.609375 L 812.027344 514.199219 C 812.027344 516.289062 810.328125 517.984375 808.242188 517.984375 L 770.859375 517.984375 C 762.378906 529.105469 742.382812 536.449219 720.046875 536.449219 Z M 720.046875 536.449219 " fill-opacity="1" fill-rule="evenodd"/><g clip-path="url(#912a40b25d)"><path fill="#a8f1ff" d="M 625.488281 537.410156 L 576.453125 537.410156 C 570.859375 537.410156 566.304688 532.855469 566.304688 527.257812 L 566.304688 421.558594 C 566.304688 415.960938 570.859375 411.40625 576.453125 411.40625 L 625.488281 411.40625 C 631.085938 411.40625 635.640625 415.960938 635.640625 421.558594 L 635.640625 527.257812 C 635.640625 532.855469 631.085938 537.410156 625.488281 537.410156 Z M 625.488281 537.410156 " fill-opacity="1" fill-rule="evenodd"/></g><g clip-path="url(#e2e38b81ae)"><path fill="#a8f1ff" d="M 863.640625 537.410156 L 814.605469 537.410156 C 809.011719 537.410156 804.457031 532.855469 804.457031 527.257812 L 804.457031 421.558594 C 804.457031 415.960938 809.011719 411.40625 814.605469 411.40625 L 863.640625 411.40625 C 869.234375 411.40625 873.792969 415.960938 873.792969 421.558594 L 873.792969 527.257812 C 873.792969 532.855469 869.234375 537.410156 863.640625 537.410156 Z M 863.640625 537.410156 " fill-opacity="1" fill-rule="evenodd"/></g><path fill="#000000" d="M 714.957031 222.101562 C 672.445312 222.101562 637.867188 256.679688 637.867188 299.183594 C 637.867188 341.691406 672.445312 376.269531 714.957031 376.269531 C 757.460938 376.269531 792.039062 341.691406 792.039062 299.183594 C 792.039062 256.679688 757.460938 222.101562 714.957031 222.101562 Z M 714.957031 222.101562 " fill-opacity="1" fill-rule="evenodd"/><g clip-path="url(#370be43702)"><path fill="#1d81ce" d="M 714.957031 383.832031 C 668.277344 383.832031 630.300781 345.859375 630.300781 299.183594 C 630.300781 252.511719 668.277344 214.53125 714.957031 214.53125 C 761.636719 214.53125 799.609375 252.511719 799.609375 299.183594 C 799.609375 345.859375 761.628906 383.832031 714.957031 383.832031 Z M 714.957031 383.832031 " fill-opacity="1" fill-rule="evenodd"/></g><path fill="#ffffff" d="M 714.957031 368.566406 C 676.691406 368.566406 645.570312 337.445312 645.570312 299.183594 C 645.570312 260.925781 676.691406 229.800781 714.957031 229.800781 C 753.214844 229.800781 784.34375 260.925781 784.34375 299.183594 C 784.34375 337.445312 753.214844 368.566406 714.957031 368.566406 Z M 714.957031 368.566406 " fill-opacity="1" fill-rule="evenodd"/><path fill="#b3b3b3" d="M 714.957031 255.726562 C 712.515625 255.726562 710.539062 253.753906 710.539062 251.3125 L 710.539062 243.773438 C 710.539062 241.332031 712.515625 239.355469 714.957031 239.355469 C 717.398438 239.355469 719.371094 241.332031 719.371094 243.773438 L 719.371094 251.3125 C 719.371094 253.753906 717.398438 255.726562 714.957031 255.726562 Z M 714.957031 255.726562 " fill-opacity="1" fill-rule="evenodd"/><path fill="#b3b3b3" d="M 738.886719 262.144531 C 738.136719 262.144531 737.378906 261.953125 736.683594 261.550781 C 734.570312 260.328125 733.84375 257.628906 735.0625 255.515625 L 738.835938 248.992188 C 740.054688 246.878906 742.753906 246.152344 744.867188 247.371094 C 746.980469 248.59375 747.707031 251.292969 746.488281 253.40625 L 742.714844 259.9375 C 741.902344 261.347656 740.414062 262.144531 738.886719 262.144531 Z M 738.886719 262.144531 " fill-opacity="1" fill-rule="evenodd"/><path fill="#b3b3b3" d="M 756.417969 279.664062 C 754.890625 279.664062 753.402344 278.875 752.589844 277.457031 C 751.363281 275.339844 752.089844 272.640625 754.203125 271.425781 L 760.734375 267.652344 C 762.847656 266.433594 765.546875 267.160156 766.765625 269.273438 C 767.988281 271.386719 767.265625 274.085938 765.148438 275.304688 L 758.621094 279.078125 C 757.925781 279.472656 757.167969 279.664062 756.417969 279.664062 Z M 756.417969 279.664062 " fill-opacity="1" fill-rule="evenodd"/><path fill="#b3b3b3" d="M 770.367188 303.605469 L 762.828125 303.605469 C 760.394531 303.605469 758.414062 301.625 758.414062 299.183594 C 758.414062 296.746094 760.394531 294.765625 762.828125 294.765625 L 770.367188 294.765625 C 772.808594 294.765625 774.785156 296.746094 774.785156 299.183594 C 774.785156 301.625 772.804688 303.605469 770.367188 303.605469 Z M 770.367188 303.605469 " fill-opacity="1" fill-rule="evenodd"/><path fill="#b3b3b3" d="M 762.9375 331.304688 C 762.191406 331.304688 761.429688 331.117188 760.734375 330.710938 L 754.203125 326.945312 C 752.089844 325.730469 751.363281 323.023438 752.589844 320.910156 C 753.808594 318.796875 756.507812 318.078125 758.621094 319.292969 L 765.148438 323.066406 C 767.265625 324.285156 767.988281 326.984375 766.765625 329.097656 C 765.953125 330.515625 764.460938 331.304688 762.9375 331.304688 Z M 762.9375 331.304688 " fill-opacity="1" fill-rule="evenodd"/><path fill="#b3b3b3" d="M 742.664062 351.589844 C 741.136719 351.589844 739.648438 350.800781 738.835938 349.378906 L 735.0625 342.851562 C 733.84375 340.738281 734.570312 338.039062 736.683594 336.820312 C 738.796875 335.59375 741.496094 336.320312 742.714844 338.433594 L 746.488281 344.964844 C 747.707031 347.078125 746.980469 349.777344 744.867188 350.996094 C 744.171875 351.398438 743.414062 351.589844 742.664062 351.589844 Z M 742.664062 351.589844 " fill-opacity="1" fill-rule="evenodd"/><path fill="#b3b3b3" d="M 714.957031 359.011719 C 712.515625 359.011719 710.539062 357.03125 710.539062 354.589844 L 710.539062 347.058594 C 710.539062 344.617188 712.515625 342.636719 714.957031 342.636719 C 717.398438 342.636719 719.371094 344.617188 719.371094 347.058594 L 719.371094 354.589844 C 719.371094 357.03125 717.398438 359.011719 714.957031 359.011719 Z M 714.957031 359.011719 " fill-opacity="1" fill-rule="evenodd"/><path fill="#b3b3b3" d="M 687.246094 351.589844 C 686.496094 351.589844 685.734375 351.398438 685.039062 350.996094 C 682.925781 349.777344 682.199219 347.070312 683.421875 344.964844 L 687.191406 338.433594 C 688.40625 336.320312 691.113281 335.59375 693.226562 336.820312 C 695.339844 338.039062 696.0625 340.738281 694.84375 342.851562 L 691.078125 349.378906 C 690.257812 350.800781 688.773438 351.589844 687.246094 351.589844 Z M 687.246094 351.589844 " fill-opacity="1" fill-rule="evenodd"/><path fill="#b3b3b3" d="M 666.96875 331.304688 C 665.441406 331.304688 663.953125 330.515625 663.140625 329.097656 C 661.917969 326.984375 662.640625 324.285156 664.753906 323.066406 L 671.285156 319.292969 C 673.398438 318.078125 676.097656 318.796875 677.316406 320.910156 C 678.539062 323.023438 677.816406 325.730469 675.703125 326.945312 L 669.171875 330.710938 C 668.476562 331.117188 667.71875 331.304688 666.96875 331.304688 Z M 666.96875 331.304688 " fill-opacity="1" fill-rule="evenodd"/><path fill="#b3b3b3" d="M 667.078125 303.605469 L 659.542969 303.605469 C 657.101562 303.605469 655.121094 301.625 655.121094 299.183594 C 655.121094 296.746094 657.101562 294.765625 659.542969 294.765625 L 667.078125 294.765625 C 669.519531 294.765625 671.5 296.746094 671.5 299.183594 C 671.5 301.625 669.519531 303.605469 667.078125 303.605469 Z M 667.078125 303.605469 " fill-opacity="1" fill-rule="evenodd"/><path fill="#b3b3b3" d="M 673.488281 279.664062 C 672.742188 279.664062 671.980469 279.472656 671.285156 279.070312 L 664.753906 275.304688 C 662.640625 274.085938 661.917969 271.386719 663.140625 269.273438 C 664.359375 267.160156 667.058594 266.433594 669.171875 267.652344 L 675.703125 271.417969 C 677.816406 272.640625 678.539062 275.339844 677.316406 277.457031 C 676.503906 278.875 675.015625 279.664062 673.488281 279.664062 Z M 673.488281 279.664062 " fill-opacity="1" fill-rule="evenodd"/><path fill="#b3b3b3" d="M 691.019531 262.144531 C 689.492188 262.144531 688.011719 261.347656 687.191406 259.9375 L 683.421875 253.40625 C 682.199219 251.292969 682.925781 248.59375 685.039062 247.371094 C 687.152344 246.152344 689.851562 246.878906 691.070312 248.992188 L 694.84375 255.515625 C 696.0625 257.628906 695.335938 260.332031 693.222656 261.550781 C 692.527344 261.949219 691.769531 262.144531 691.019531 262.144531 Z M 691.019531 262.144531 " fill-opacity="1" fill-rule="evenodd"/><path fill="#b3b3b3" d="M 714.957031 312.253906 C 707.746094 312.253906 701.882812 306.394531 701.882812 299.183594 C 701.882812 291.976562 707.746094 286.109375 714.957031 286.109375 C 722.160156 286.109375 728.027344 291.976562 728.027344 299.183594 C 728.027344 306.394531 722.160156 312.253906 714.957031 312.253906 Z M 714.957031 312.253906 " fill-opacity="1" fill-rule="evenodd"/><path fill="#b3b3b3" d="M 714.957031 292.398438 C 712.515625 292.398438 710.539062 290.417969 710.539062 287.976562 L 710.539062 264.855469 C 710.539062 262.414062 712.515625 260.441406 714.957031 260.441406 C 717.398438 260.441406 719.371094 262.414062 719.371094 264.855469 L 719.371094 287.976562 C 719.371094 290.417969 717.398438 292.398438 714.957031 292.398438 Z M 714.957031 292.398438 " fill-opacity="1" fill-rule="evenodd"/><path fill="#348ed3" d="M 836.386719 362.507812 C 825.980469 362.507812 817.515625 354.046875 817.515625 343.644531 C 817.515625 338.011719 823.230469 326.757812 830.144531 313.71875 C 831.320312 311.492188 832.339844 309.566406 832.996094 308.246094 C 833.632812 306.960938 834.945312 306.148438 836.386719 306.148438 C 837.816406 306.148438 839.128906 306.960938 839.773438 308.246094 C 840.429688 309.566406 841.445312 311.484375 842.617188 313.710938 C 849.53125 326.757812 855.25 338.011719 855.25 343.644531 C 855.253906 354.046875 846.789062 362.507812 836.386719 362.507812 Z M 833.570312 299.71875 C 823.167969 299.71875 814.699219 291.253906 814.699219 280.847656 C 814.699219 275.222656 820.421875 263.960938 827.332031 250.914062 C 828.511719 248.695312 829.527344 246.777344 830.183594 245.457031 C 830.820312 244.171875 832.132812 243.355469 833.570312 243.355469 C 835.007812 243.355469 836.320312 244.171875 836.960938 245.457031 C 837.617188 246.777344 838.632812 248.695312 839.8125 250.914062 C 846.71875 263.960938 852.441406 275.222656 852.441406 280.847656 C 852.441406 291.253906 843.976562 299.71875 833.570312 299.71875 Z M 833.570312 299.71875 " fill-opacity="1" fill-rule="evenodd"/><path fill="#59d7f2" d="M 612.113281 433.621094 L 589.828125 433.621094 C 587.734375 433.621094 586.042969 431.921875 586.042969 429.835938 C 586.042969 427.746094 587.734375 426.050781 589.828125 426.050781 L 612.113281 426.050781 C 614.203125 426.050781 615.898438 427.746094 615.898438 429.835938 C 615.898438 431.921875 614.203125 433.621094 612.113281 433.621094 Z M 850.269531 522.761719 L 827.980469 522.761719 C 825.894531 522.761719 824.195312 521.070312 824.195312 518.976562 C 824.195312 516.886719 825.894531 515.195312 827.980469 515.195312 L 850.269531 515.195312 C 852.359375 515.195312 854.050781 516.886719 854.050781 518.976562 C 854.050781 521.070312 852.359375 522.761719 850.269531 522.761719 Z M 850.269531 500.480469 L 827.980469 500.480469 C 825.894531 500.480469 824.195312 498.78125 824.195312 496.695312 C 824.195312 494.605469 825.894531 492.910156 827.980469 492.910156 L 850.269531 492.910156 C 852.359375 492.910156 854.050781 494.605469 854.050781 496.695312 C 854.050781 498.78125 852.359375 500.480469 850.269531 500.480469 Z M 850.269531 478.191406 L 827.980469 478.191406 C 825.894531 478.191406 824.195312 476.492188 824.195312 474.40625 C 824.195312 472.316406 825.894531 470.621094 827.980469 470.621094 L 850.269531 470.621094 C 852.359375 470.621094 854.050781 472.316406 854.050781 474.40625 C 854.050781 476.492188 852.359375 478.191406 850.269531 478.191406 Z M 850.269531 455.902344 L 827.980469 455.902344 C 825.894531 455.902344 824.195312 454.210938 824.195312 452.121094 C 824.195312 450.027344 825.894531 448.335938 827.980469 448.335938 L 850.269531 448.335938 C 852.359375 448.335938 854.050781 450.027344 854.050781 452.121094 C 854.050781 454.210938 852.359375 455.902344 850.269531 455.902344 Z M 850.269531 433.621094 L 827.980469 433.621094 C 825.894531 433.621094 824.195312 431.921875 824.195312 429.835938 C 824.195312 427.746094 825.894531 426.050781 827.980469 426.050781 L 850.269531 426.050781 C 852.359375 426.050781 854.050781 427.746094 854.050781 429.835938 C 854.050781 431.921875 852.359375 433.621094 850.269531 433.621094 Z M 612.113281 522.761719 L 589.828125 522.761719 C 587.734375 522.761719 586.042969 521.070312 586.042969 518.976562 C 586.042969 516.886719 587.734375 515.195312 589.828125 515.195312 L 612.113281 515.195312 C 614.203125 515.195312 615.898438 516.886719 615.898438 518.976562 C 615.898438 521.070312 614.203125 522.761719 612.113281 522.761719 Z M 612.113281 500.480469 L 589.828125 500.480469 C 587.734375 500.480469 586.042969 498.78125 586.042969 496.695312 C 586.042969 494.605469 587.734375 492.90625 589.828125 492.90625 L 612.113281 492.90625 C 614.203125 492.90625 615.898438 494.605469 615.898438 496.695312 C 615.898438 498.78125 614.203125 500.480469 612.113281 500.480469 Z M 612.113281 478.191406 L 589.828125 478.191406 C 587.734375 478.191406 586.042969 476.492188 586.042969 474.40625 C 586.042969 472.316406 587.734375 470.621094 589.828125 470.621094 L 612.113281 470.621094 C 614.203125 470.621094 615.898438 472.316406 615.898438 474.40625 C 615.898438 476.492188 614.203125 478.191406 612.113281 478.191406 Z M 612.113281 455.902344 L 589.828125 455.902344 C 587.734375 455.902344 586.042969 454.210938 586.042969 452.121094 C 586.042969 450.027344 587.734375 448.335938 589.828125 448.335938 L 612.113281 448.335938 C 614.203125 448.335938 615.898438 450.027344 615.898438 452.121094 C 615.898438 454.210938 614.203125 455.902344 612.113281 455.902344 Z M 612.113281 455.902344 " fill-opacity="1" fill-rule="evenodd"/><g clip-path="url(#ca18d6c319)"><g clip-path="url(#c3448361d2)"><path fill="#0097b2" d="M 137.613281 405 L 433.769531 405 L 433.769531 526.5 L 137.613281 526.5 Z M 137.613281 405 " fill-opacity="1" fill-rule="nonzero"/></g></g><g clip-path="url(#b2c446ea6c)"><g clip-path="url(#030cc2c02d)"><path fill="#0097b2" d="M 1020.6875 405 L 1316.84375 405 L 1316.84375 526.5 L 1020.6875 526.5 Z M 1020.6875 405 " fill-opacity="1" fill-rule="nonzero"/></g></g><path stroke-linecap="butt" transform="matrix(0.749952, -0.00847845, 0.00847845, 0.749952, 433.599512, 465.750045)" fill="none" stroke-linejoin="miter" d="M 0.000956763 2.000079 L 176.918527 2.000061 " stroke="#000000" stroke-width="4" stroke-opacity="1" stroke-miterlimit="4"/><path stroke-linecap="butt" transform="matrix(0.749844, -0.0153045, 0.0153045, 0.749844, 873.671962, 465.750261)" fill="none" stroke-linejoin="miter" d="M 0.000736855 2.000084 L 196.020724 2.000057 " stroke="#000000" stroke-width="4" stroke-opacity="1" stroke-miterlimit="4"/></svg>
